<svg width="41" height="36" viewBox="0 0 41 36" fill="none" xmlns="http://www.w3.org/2000/svg">
<path d="M14.4914 0.732336C14.9604 0.263421 15.5965 0 16.2598 0C16.923 0 17.5591 0.263421 18.0282 0.732336L19.6465 2.34815C19.8813 2.58299 20.0133 2.90149 20.0133 3.2336C20.0133 3.5657 19.8813 3.88421 19.6465 4.11904C19.4117 4.35388 19.0931 4.48581 18.761 4.48581C18.4289 4.48581 18.1104 4.35388 17.8756 4.11904L16.2598 2.50073L5.0041 13.7564V29.4968C5.0041 29.8285 5.13587 30.1466 5.3704 30.3812C5.60494 30.6157 5.92305 30.7475 6.25473 30.7475C6.58642 30.7475 6.90452 30.8792 7.13906 31.1138C7.3736 31.3483 7.50536 31.6664 7.50536 31.9981C7.50536 32.3298 7.3736 32.6479 7.13906 32.8824C6.90452 33.117 6.58642 33.2487 6.25473 33.2487C5.25967 33.2487 4.30536 32.8535 3.60175 32.1498C2.89813 31.4462 2.50284 30.4919 2.50284 29.4968V16.2577L2.13766 16.6254C1.90282 16.8602 1.58432 16.9921 1.25221 16.9921C0.920104 16.9921 0.601599 16.8602 0.366764 16.6254C0.131929 16.3905 4.94878e-09 16.072 0 15.7399C-4.94878e-09 15.4078 0.131929 15.0893 0.366764 14.8545L14.4914 0.732336ZM21.9952 3.2336C22.4642 2.76468 23.1003 2.50126 23.7636 2.50126C24.4268 2.50126 25.0629 2.76468 25.532 3.2336L30.0167 7.71836V4.48423C30.0167 4.15254 30.1485 3.83444 30.383 3.5999C30.6176 3.36536 30.9357 3.2336 31.2674 3.2336H33.7686C34.1003 3.2336 34.4184 3.36536 34.6529 3.5999C34.8875 3.83444 35.0192 4.15254 35.0192 4.48423V12.7209L39.6566 17.3557C39.8914 17.5906 40.0233 17.9091 40.0233 18.2412C40.0233 18.5733 39.8914 18.8918 39.6566 19.1266C39.4217 19.3615 39.1032 19.4934 38.7711 19.4934C38.439 19.4934 38.1205 19.3615 37.8857 19.1266L37.5205 18.7589V31.9981C37.5205 32.9932 37.1252 33.9475 36.4216 34.6511C35.718 35.3547 34.7637 35.75 33.7686 35.75H13.7585C12.7635 35.75 11.8091 35.3547 11.1055 34.6511C10.4019 33.9475 10.0066 32.9932 10.0066 31.9981V18.7589L9.64144 19.1266C9.52516 19.2429 9.38712 19.3351 9.2352 19.3981C9.08327 19.461 8.92044 19.4934 8.756 19.4934C8.59155 19.4934 8.42872 19.461 8.2768 19.3981C8.12487 19.3351 7.98683 19.2429 7.87055 19.1266C7.75427 19.0103 7.66203 18.8723 7.5991 18.7204C7.53617 18.5684 7.50379 18.4056 7.50379 18.2412C7.50379 18.0767 7.53617 17.9139 7.5991 17.762C7.66203 17.61 7.75427 17.472 7.87055 17.3557L21.9952 3.2336ZM23.7636 5.00199L12.5079 16.2577V31.9981C12.5079 32.3298 12.6397 32.6479 12.8742 32.8824C13.1087 33.117 13.4268 33.2487 13.7585 33.2487H33.7686C34.1003 33.2487 34.4184 33.117 34.6529 32.8824C34.8875 32.6479 35.0192 32.3298 35.0192 31.9981V16.2577L23.7636 5.00199Z" fill="#6C67F1"/>
</svg>
