<svg width="21" height="36" viewBox="0 0 21 36" fill="none" xmlns="http://www.w3.org/2000/svg">
<g opacity="0.2">
<path fill-rule="evenodd" clip-rule="evenodd" d="M6.74605 9.33473C5.6517 10.155 5.15716 11.1381 5.15716 12.0557C5.15716 12.9753 5.6517 13.9584 6.74605 14.7806C7.84238 15.6029 9.44716 16.1709 11.3042 16.1709C11.8309 16.1709 12.3361 16.3802 12.7086 16.7526C13.081 17.1251 13.2903 17.6303 13.2903 18.157C13.2903 18.6838 13.081 19.189 12.7086 19.5614C12.3361 19.9339 11.8309 20.1431 11.3042 20.1431C8.67059 20.1431 6.2098 19.3447 4.36271 17.9584C2.51563 16.5721 1.18494 14.5066 1.18494 12.0577C1.18494 9.60683 2.51563 7.54127 4.36271 6.15497C6.2098 4.77065 8.67258 3.97223 11.3042 3.97223C15.3817 3.97223 19.2367 5.92458 20.77 9.17584C20.9946 9.65255 21.0207 10.199 20.8425 10.6949C20.6643 11.1909 20.2963 11.5957 19.8196 11.8203C19.5836 11.9316 19.3279 11.9952 19.0673 12.0077C18.8067 12.0201 18.5461 11.9811 18.3005 11.8929C17.8046 11.7146 17.3998 11.3467 17.1751 10.87C16.48 9.38637 14.3111 7.94445 11.3062 7.94445C9.44914 7.94445 7.84238 8.51248 6.74605 9.33473Z" fill="#6C67F1"/>
<path fill-rule="evenodd" clip-rule="evenodd" d="M15.2069 26.9773C16.3013 26.1571 16.7938 25.174 16.7938 24.2564C16.7938 23.3368 16.3013 22.3517 15.2049 21.5314C14.1106 20.7092 12.5038 20.1412 10.6468 20.1412C10.1201 20.1412 9.61488 19.9319 9.24241 19.5594C8.86994 19.187 8.66069 18.6818 8.66069 18.155C8.66069 17.6283 8.86994 17.1231 9.24241 16.7506C9.61488 16.3782 10.1201 16.1689 10.6468 16.1689C13.2824 16.1689 15.7432 16.9673 17.5902 18.3537C19.4373 19.74 20.766 21.8055 20.766 24.2544C20.766 26.7033 19.4373 28.7708 17.5883 30.1551C15.7412 31.5414 13.2824 32.3398 10.6468 32.3398C6.5713 32.3398 2.71427 30.3875 1.18298 27.1342C0.958324 26.6578 0.932134 26.1116 1.11017 25.6159C1.28821 25.1201 1.6559 24.7154 2.13234 24.4907C2.60879 24.2661 3.15497 24.2399 3.65072 24.4179C4.14648 24.596 4.5512 24.9637 4.77586 25.4401C5.47497 26.9257 7.6438 28.3676 10.6468 28.3676C12.5058 28.3676 14.1106 27.7996 15.2069 26.9773ZM10.9229 0C11.4496 0 11.9548 0.20925 12.3273 0.581718C12.6997 0.954186 12.909 1.45936 12.909 1.98611V3.97222C12.909 4.49897 12.6997 5.00415 12.3273 5.37661C11.9548 5.74908 11.4496 5.95833 10.9229 5.95833C10.3961 5.95833 9.89095 5.74908 9.51848 5.37661C9.14601 5.00415 8.93676 4.49897 8.93676 3.97222V1.98611C8.93676 1.45936 9.14601 0.954186 9.51848 0.581718C9.89095 0.20925 10.3961 0 10.9229 0Z" fill="#6C67F1"/>
<path fill-rule="evenodd" clip-rule="evenodd" d="M10.9229 29.7917C11.4496 29.7917 11.9548 30.0009 12.3273 30.3734C12.6997 30.7459 12.909 31.251 12.909 31.7778V33.7639C12.909 34.2907 12.6997 34.7958 12.3273 35.1683C11.9548 35.5408 11.4496 35.75 10.9229 35.75C10.3961 35.75 9.89095 35.5408 9.51849 35.1683C9.14602 34.7958 8.93677 34.2907 8.93677 33.7639V31.7778C8.93677 31.251 9.14602 30.7459 9.51849 30.3734C9.89095 30.0009 10.3961 29.7917 10.9229 29.7917Z" fill="#6C67F1"/>
</g>
<path fill-rule="evenodd" clip-rule="evenodd" d="M4.16412 8.54027C2.88109 9.50155 2.17801 10.7548 2.17801 12.0557C2.17801 13.3586 2.88109 14.6118 4.16412 15.5751C5.44714 16.5383 7.26642 17.164 9.31808 17.164C9.58145 17.164 9.83404 17.2686 10.0203 17.4548C10.2065 17.6411 10.3111 17.8936 10.3111 18.157C10.3111 18.4204 10.2065 18.673 10.0203 18.8592C9.83404 19.0455 9.58145 19.1501 9.31808 19.1501C6.87913 19.1501 4.63085 18.4093 2.97245 17.164C1.31206 15.9187 0.191895 14.1252 0.191895 12.0577C0.191895 9.99212 1.31206 8.19469 2.97245 6.9494C4.63284 5.70609 6.87913 4.96527 9.31808 4.96527C13.1274 4.96527 16.5614 6.79051 17.8862 9.60085C17.9984 9.83921 18.0113 10.1124 17.9221 10.3602C17.8329 10.6081 17.6488 10.8104 17.4105 10.9226C17.1721 11.0348 16.899 11.0477 16.6511 10.9585C16.4032 10.8693 16.2009 10.6853 16.0887 10.4469C15.1811 8.52041 12.5912 6.95138 9.31808 6.95138C7.26642 6.95138 5.44714 7.57701 4.16412 8.54027Z" fill="#6C67F1"/>
<path fill-rule="evenodd" clip-rule="evenodd" d="M13.8166 27.7718C15.0997 26.8105 15.8008 25.5553 15.8008 24.2564C15.8008 22.9535 15.0997 21.7003 13.8146 20.737C12.5316 19.7737 10.7123 19.1481 8.66267 19.1481C8.3993 19.1481 8.14671 19.0435 7.96048 18.8572C7.77424 18.671 7.66962 18.4184 7.66962 18.155C7.66962 17.8917 7.77424 17.6391 7.96048 17.4528C8.14671 17.2666 8.3993 17.162 8.66267 17.162C11.1016 17.162 13.3499 17.9028 15.0083 19.1481C16.6667 20.3934 17.7869 22.1868 17.7869 24.2544C17.7869 26.3199 16.6667 28.1174 15.0063 29.3607C13.3479 30.606 11.1016 31.3468 8.66267 31.3468C4.85331 31.3468 1.41933 29.5216 0.0945891 26.7112C-0.0176085 26.4729 -0.0305245 26.1997 0.0586816 25.9518C0.147888 25.7039 0.331909 25.5016 0.570263 25.3895C0.808617 25.2773 1.08178 25.2643 1.32966 25.3535C1.57753 25.4428 1.77982 25.6268 1.89202 25.8651C2.79967 27.7917 5.38758 29.3607 8.66267 29.3607C10.7123 29.3607 12.5316 28.7351 13.8166 27.7718ZM7.9437 0C8.20708 0 8.45966 0.104625 8.6459 0.290859C8.83213 0.477093 8.93676 0.729681 8.93676 0.993056V4.96528C8.93676 5.22865 8.83213 5.48124 8.6459 5.66747C8.45966 5.85371 8.20708 5.95833 7.9437 5.95833C7.68033 5.95833 7.42774 5.85371 7.2415 5.66747C7.05527 5.48124 6.95064 5.22865 6.95064 4.96528V0.993056C6.95064 0.729681 7.05527 0.477093 7.2415 0.290859C7.42774 0.104625 7.68033 0 7.9437 0Z" fill="#6C67F1"/>
<path fill-rule="evenodd" clip-rule="evenodd" d="M7.94374 29.7917C8.20711 29.7917 8.4597 29.8963 8.64594 30.0825C8.83217 30.2688 8.93679 30.5214 8.93679 30.7847V34.757C8.93679 35.0203 8.83217 35.2729 8.64594 35.4592C8.4597 35.6454 8.20711 35.75 7.94374 35.75C7.68036 35.75 7.42778 35.6454 7.24154 35.4592C7.05531 35.2729 6.95068 35.0203 6.95068 34.757V30.7847C6.95068 30.5214 7.05531 30.2688 7.24154 30.0825C7.42778 29.8963 7.68036 29.7917 7.94374 29.7917Z" fill="#6C67F1"/>
</svg>
