<svg width="31" height="36" viewBox="0 0 31 36" fill="none" xmlns="http://www.w3.org/2000/svg">
<path d="M4.02188 0C2.95521 0 1.93223 0.423732 1.17798 1.17798C0.423732 1.93223 0 2.95521 0 4.02187V31.7281C0 32.7948 0.423732 33.8178 1.17798 34.572C1.93223 35.3263 2.95521 35.75 4.02188 35.75H17.4281C18.4883 35.75 19.5057 35.3315 20.2588 34.5853C21.012 33.8392 21.4401 32.8258 21.45 31.7657V29.0487C21.45 28.6931 21.3088 28.3521 21.0573 28.1007C20.8059 27.8493 20.4649 27.708 20.1094 27.708C19.2996 27.708 18.7884 27.4882 18.4363 27.204C18.0645 26.9055 17.757 26.4443 17.5229 25.7936C17.0349 24.4441 16.983 22.6655 16.983 21.0031C16.983 20.6633 16.854 20.3362 16.622 20.0879L16.327 19.7715C16.2309 19.6635 16.1295 19.5603 16.0232 19.4623C15.8909 19.3372 15.4869 18.9529 13.9085 17.3745C13.0702 16.5362 12.6072 15.8283 12.4553 15.2867C12.3939 15.0991 12.384 14.8985 12.4267 14.7058C12.494 14.4835 12.6207 14.2839 12.7931 14.1284C12.9482 13.9567 13.1472 13.8306 13.3687 13.7638C13.5608 13.721 13.7609 13.7309 13.9479 13.7923C14.4877 13.9443 15.1955 14.4108 16.0339 15.2492C16.9991 16.2144 17.9161 17.1189 18.7366 17.9304C20.0951 19.2746 21.1908 20.3614 21.8111 21.0228C22.0541 21.2807 22.3893 21.4318 22.7435 21.4433C23.0976 21.4547 23.4419 21.3255 23.701 21.0838C23.9602 20.8421 24.1131 20.5077 24.1264 20.1536C24.1397 19.7995 24.0123 19.4546 23.772 19.1942C23.0111 18.3984 22.237 17.6154 21.45 16.8454V10.8323L26.5283 15.9123C27.2826 16.6667 27.708 17.6891 27.708 18.7544V34.4094C27.708 34.7649 27.8493 35.1059 28.1007 35.3573C28.3521 35.6088 28.6931 35.75 29.0487 35.75C29.4042 35.75 29.7452 35.6088 29.9966 35.3573C30.248 35.1059 30.3893 34.7649 30.3893 34.4094V18.7562C30.3892 17.8758 30.2157 17.004 29.8786 16.1906C29.5416 15.3772 29.0476 14.6382 28.4248 14.0158L21.45 7.04096V4.02009C21.4495 2.95373 21.0256 1.93121 20.2714 1.17735C19.5172 0.423487 18.4945 -1.05319e-07 17.4281 0H4.02188ZM15.0007 26.7053C15.1741 27.1843 15.3975 27.6598 15.6871 28.1031C15.004 28.4311 14.4275 28.9454 14.024 29.5867C13.6205 30.2281 13.4063 30.9704 13.4063 31.7281V33.0688H8.04375V31.7281C8.04375 30.6615 7.62002 29.6385 6.86577 28.8842C6.11152 28.13 5.08854 27.7063 4.02188 27.7063H2.68125V8.04375H4.02188C5.08854 8.04375 6.11152 7.62002 6.86577 6.86577C7.62002 6.11152 8.04375 5.08854 8.04375 4.02187V2.68125H13.4063V4.02187C13.4063 5.08854 13.83 6.11152 14.5842 6.86577C15.3385 7.62002 16.3615 8.04375 17.4281 8.04375H18.7688V14.1892L17.9304 13.3526C16.9813 12.4035 15.8784 11.5508 14.6754 11.2112C14.0333 11.021 13.352 11.0056 12.702 11.1665C12.2993 11.2712 11.9173 11.4434 11.5723 11.6759C10.5617 11.5381 9.53268 11.6494 8.57494 12.0002C7.6172 12.3511 6.75975 12.9307 6.07729 13.6887C5.39482 14.4467 4.90804 15.3601 4.65933 16.3493C4.41063 17.3385 4.40754 18.3735 4.65035 19.3641C4.89315 20.3548 5.37449 21.271 6.05242 22.0331C6.73035 22.7952 7.58433 23.3799 8.53996 23.7364C9.49559 24.0929 10.5239 24.2104 11.5353 24.0786C12.5467 23.9468 13.5106 23.5696 14.3429 22.9801C14.409 24.2028 14.5753 25.5309 15.0007 26.7053ZM7.15 17.875C7.14984 17.0963 7.40396 16.3388 7.87373 15.7177C8.3435 15.0966 9.00322 14.6459 9.7526 14.4341C9.68367 14.9629 9.72505 15.5003 9.87415 16.0124C10.212 17.2154 11.0628 18.3201 12.0138 19.271L13.2025 20.4544C12.6969 20.9403 12.0596 21.2669 11.3699 21.3934C10.6802 21.5199 9.96851 21.4407 9.32342 21.1658C8.67833 20.8909 8.12834 20.4323 7.74189 19.8472C7.35544 19.2621 7.14961 18.5762 7.15 17.875ZM2.68125 4.02187C2.68125 3.66632 2.82249 3.32533 3.07391 3.07391C3.32533 2.82249 3.66632 2.68125 4.02188 2.68125H5.3625V4.02187C5.3625 4.37743 5.22126 4.71842 4.96984 4.96984C4.71842 5.22126 4.37743 5.3625 4.02188 5.3625H2.68125V4.02187ZM16.0875 2.68125H17.4281C17.7837 2.68125 18.1247 2.82249 18.3761 3.07391C18.6275 3.32533 18.7688 3.66632 18.7688 4.02187V5.3625H17.4281C17.0726 5.3625 16.7316 5.22126 16.4802 4.96984C16.2287 4.71842 16.0875 4.37743 16.0875 4.02187V2.68125ZM18.7688 30.3875V31.7281C18.7688 32.0837 18.6275 32.4247 18.3761 32.6761C18.1247 32.9275 17.7837 33.0688 17.4281 33.0688H16.0875V31.7281C16.0875 31.3726 16.2287 31.0316 16.4802 30.7802C16.7316 30.5287 17.0726 30.3875 17.4281 30.3875H18.7688ZM5.3625 33.0688H4.02188C3.66632 33.0688 3.32533 32.9275 3.07391 32.6761C2.82249 32.4247 2.68125 32.0837 2.68125 31.7281V30.3875H4.02188C4.37743 30.3875 4.71842 30.5287 4.96984 30.7802C5.22126 31.0316 5.3625 31.3726 5.3625 31.7281V33.0688Z" fill="#6C67F1"/>
</svg>
